<svg xmlns="http://www.w3.org/2000/svg" viewBox="0 0 31 31"><path d="M1 1h7v7h-7zM13 1h2v1h1v-1h1v2h1v1h-1v1h-2v-1h1v-1h-1v1h-1v-2h-1zM20 1h1v1h-1zM23 1h7v7h-7zM2 2v5h5v-5zM10 2h1v1h1v2h-2v1h1v1h-1v2h-1v-6h1zM12 2h1v1h-1zM19 2h1v1h1v-1h1v3h-1v-1h-1v1h1v1h-3v3h2v1h-4v-1h-1v-2h1v1h1v-1h-1v-1h1v-1h1v-1h1zM24 2v5h5v-5zM3 3h3v3h-3zM25 3h3v3h-3zM13 4h1v1h-1zM12 5h1v2h-1zM11 7h1v2h-1zM13 7h1v1h-1zM19 7h1v1h-1zM21 7h1v3h-1v-1h-1v-1h1zM1 9h1v2h-1zM3 9h5v1h-3v1h1v1h-2v-1h-1zM12 9h2v1h-2zM23 9h5v1h-2v2h-2v-1h-1v1h-2v-1h1v-1h1zM8 10h1v1h-1zM14 10h2v1h1v1h-2v1h-1v-1h-1v2h-1v-1h-1v1h-1v-1h-1v1h1v2h-1v-1h-1v-1h-4v-1h2v-1h1v1h1v-1h2v-1h4zM20 10h1v1h-1zM29 10h1v1h-1zM7 11h1v1h-1zM28 11h1v1h1v1h-2zM17 12h1v1h-1zM2 13h1v1h1v1h-1v4h-1v3h-1v-4h1v-2h-1v-1h1zM15 13h2v1h-2zM18 13h1v1h-1zM22 13h1v1h1v1h1v1h-2v-1h-1v2h-1v-2h-2v-1h3zM24 13h1v1h-1zM26 13h2v1h2v1h-3v-1h-1zM11 14h1v2h-1zM13 14h1v1h-1zM17 14h1v1h-1zM25 14h1v1h-1zM4 15h1v2h-1zM6 15h2v1h-2zM16 15h1v1h-1zM15 16h1v1h-1zM19 16h1v1h-1zM25 16h2v1h-2zM7 17h7v1h-1v2h1v-2h2v1h1v-1h1v1h1v-1h1v-1h1v2h-1v1h-2v1h-1v1h-2v-1h1v-1h-1v1h-3v-3h-1v1h-1v-1h-1v2h-3v1h-1v1h-2v-3h1v1h1v-1h-1v-1h3v1h1v-1h-1zM16 17h1v1h-1zM18 17h1v1h-1zM22 17h1v1h-1zM24 17h1v1h-1zM27 17h1v1h-1zM23 18h1v1h-1zM25 18h1v1h1v1h-1v1h2v-2h1v3h-3v1h1v1h-1v1h2v1h2v1h-1v2h-1v-2h-1v-1h-5v1h-1v1h1v-1h4v2h-1v1h-1v-2h-1v1h-3v-1h-1v-1h1v-1h1v-2h-1v2h-1v1h-1v-1h-2v-1h-1v-1h1v-1h1v-1h1v1h1v-1h2v-2h2v1h2v-1h-1v-1h1zM29 18h1v1h-1zM7 21h2v1h-2zM18 21h1v1h-1zM9 22h2v2h1v1h1v1h3v1h-1v3h-1v-3h-1v1h-1v1h-2v-1h-1v-4h1v-1h-1zM12 22h1v1h1v2h-1v-1h-1zM22 22v3h3v-3zM29 22h1v1h-1zM1 23h7v7h-7zM23 23h1v1h-1zM28 23h1v2h-1zM2 24v5h5v-5zM18 24v1h1v-1zM3 25h3v3h-3zM10 25v2h2v-1h-1v-1zM16 27h1v2h-1zM9 29h1v1h-1zM17 29h3v1h-3zM27 29h1v1h-1z"/></svg>