<svg xmlns="http://www.w3.org/2000/svg" viewBox="0 0 31 31"><path d="M1 1h7v7h-7zM11 1h2v1h1v-1h1v1h1v-1h1v1h2v-1h3v2h-1v-1h-1v1h1v1h-1v1h1v1h-3v2h-1v-1h-1v-1h1v-1h1v-1h1v-1h-1v1h-1v1h-2v-1h1v-1h-1v1h-4v1h-1v4h-1v-6h3v-1h-1zM23 1h7v7h-7zM2 2v5h5v-5zM24 2v5h5v-5zM3 3h3v3h-3zM25 3h3v3h-3zM21 4h1v1h-1zM11 5h1v1h-1zM13 5h1v1h-1zM12 6h1v1h-1zM11 7h1v2h1v-2h1v3h-2v1h1v2h-2v1h-1v-2h1v-1h-1v1h-3v1h1v1h-2v-1h-1v-3h-2v-1h5v1h-2v1h3v-1h2zM15 7h1v2h-1zM19 7h1v1h-1zM21 7h1v1h-1zM20 8h1v1h-1zM1 9h1v1h1v2h1v1h1v1h-2v-1h-1v1h-1zM16 9h1v1h-1zM18 9h1v1h-1zM23 9h5v1h-1v3h-2v1h-1v-2h2v-1h-1v-1h-1v1h-1zM14 10h2v1h1v-1h1v1h1v1h-4v1h-1zM19 10h3v2h-1v-1h-2zM28 10h2v1h-2zM19 12h1v1h2v-1h1v2h1v2h-1v-1h-1v-1h-1v1h-1v-1h-2v-1h1zM28 12h1v2h-2v-1h1zM15 13h2v1h-2zM2 14h1v3h1v2h-1v-1h-1v-2h-1v-1h1zM5 14h1v5h-1v-2h-1v-1h1zM8 14h2v1h-2zM11 14h3v2h-1v-1h-1v1h-1zM17 14h1v1h-1zM25 14h1v3h-1v1h-1v-2h1zM29 14h1v1h-1zM7 15h1v1h-1zM16 15h1v2h2v-1h-1v-1h2v2h1v2h-1v-1h-4v-1h-1v-1h1zM21 15h1v2h-1zM27 15h2v1h-2zM10 16h1v1h1v1h-1v1h-1zM12 16h1v1h-1zM29 16h1v1h-1zM7 17h2v2h-1v-1h-1zM22 17h1v1h-1zM26 17h3v1h-3zM1 18h1v4h-1zM14 18h2v1h2v2h1v-2h1v1h1v-1h1v1h1v1h1v-1h1v-2h1v1h3v1h-2v1h-1v3h1v1h-1v1h-5v-2h-1v-2h1v-1h-1v1h-5v-1h2v-1h-2v1h-5v-1h1v-1h1v1h2zM23 18h1v1h-1zM29 18h1v1h-1zM4 19h1v1h-1zM6 19h2v1h-2zM9 19h1v1h-1zM5 20h1v1h2v1h-4v-1h1zM29 20h1v1h-1zM9 21h1v2h-1zM27 21h2v1h-2zM11 22h3v5h-2v-2h1v-2h-2zM22 22v3h3v-3zM29 22h1v1h-1zM1 23h7v7h-7zM10 23h1v2h-1v1h1v2h-2v-4h1zM16 23h1v1h-1zM18 23h1v1h-1zM23 23h1v1h-1zM27 23h2v2h-1v-1h-1zM2 24v5h5v-5zM15 24h1v1h-1zM17 24h1v1h-1zM19 24h1v1h-1zM3 25h3v3h-3zM16 25h1v1h-1zM18 25h1v1h-1zM27 25h1v1h-1zM15 26h1v1h-1zM17 26h1v1h-1zM19 26h2v1h-1v2h1v1h-5v-1h3v-1h-1v-1h1zM28 26h2v1h-1v2h-1zM16 27h1v1h-1zM22 27h5v1h-1v1h-1v1h-1v-2h-2zM11 28h1v1h1v1h-2zM14 28h1v2h-1zM21 28h1v1h-1zM9 29h1v1h-1zM22 29h1v1h-1zM27 29h1v1h-1z"/></svg>