<svg xmlns="http://www.w3.org/2000/svg" viewBox="0 0 31 31"><path d="M1 1h7v7h-7zM10 1h2v1h-1v2h-1v5h-1v-6h1zM13 1h2v1h1v-1h1v1h2v-1h3v1h-2v1h-5v1h-1v-1h-2v-1h1zM23 1h7v7h-7zM2 2v5h5v-5zM24 2v5h5v-5zM3 3h3v3h-3zM21 3h1v2h-1zM25 3h3v3h-3zM13 4h1v4h-1zM15 4h5v1h1v1h-3v-1h-3zM11 5h1v1h-1zM16 6h1v1h-1zM11 7h1v1h-1zM15 7h1v1h1v1h-2zM17 7h1v1h-1zM19 7h1v1h-1zM21 7h1v3h-1zM12 8h1v1h-1zM1 9h1v1h-1zM3 9h5v1h-1v1h1v1h-1v1h-1v-2h-2v-1h-1zM11 9h1v1h-1zM17 9h3v1h-3zM23 9h5v1h-2v2h-1v-1h-3v-1h1zM8 10h3v1h-3zM12 10h1v1h1v-1h2v1h1v1h-2v1h-1v-1h-2zM20 10h1v1h-1zM29 10h1v1h-1zM2 11h1v1h-1zM27 11h2v1h1v1h-1v1h1v1h-2v-1h-1v2h-1v-1h-1v-1h1v-1h2v-1h-1zM4 12h1v1h-1zM11 12h1v2h-1v2h-1v-2h-1v2h-2v-1h1v-1h-1v-1h4zM19 12h1v1h2v-1h1v2h1v1h1v1h-2v-1h-1v-1h-1v1h-1v-1h-1v1h-1v-1h-3v-1h4zM5 13h1v1h1v1h-1v1h1v1h-1v1h-4v-2h1v-2h2zM24 13h1v1h-1zM13 14h1v1h-1zM1 15h1v1h-1zM4 15v2h1v-2zM16 15h2v2h1v1h-3v-1h-1v-1h1zM19 15h1v1h-1zM21 15h1v2h-1zM9 16h1v1h-1zM11 16h1v1h-1zM13 16h1v2h2v1h1v2h-1v-1h-1v1h-1v-2h-1v-1h-1v-1h1zM25 16h1v1h-1zM28 16h1v1h-1zM7 17h2v4h-1v-1h-2v-2h1v1h1v-1h-1zM10 17h1v1h1v1h-1v2h2v1h-1v1h-1v1h-1v-1h-1v-1h1zM20 17h1v2h-1v2h-1v-1h-1v-1h1v-1h1zM22 17h1v1h-1zM26 17h2v1h-1v1h-1v2h2v2h-1v-1h-1v1h1v2h-1v1h-3v1h-2v-3h-1v-1h-1v-1h1v-1h2v-1h1v1h1v-2h-1v-1h3zM1 18h1v4h-1zM28 18h2v1h-2zM21 19h1v1h-1zM5 20h1v1h-1zM28 20h2v1h-2zM3 21h2v1h-2zM7 21h1v1h-1zM15 21h1v1h-1zM17 21h2v1h-2zM22 22v3h3v-3zM29 22h1v1h-1zM1 23h7v7h-7zM12 23h1v1h-1zM16 23h3v1h-2v1h2v-1h1v2h-4v-1h-1v-1h1zM23 23h1v1h-1zM28 23h1v2h-1zM2 24v5h5v-5zM9 24h1v1h4v1h2v1h2v1h-1v2h-3v-1h2v-1h-2v1h-2v-1h-1v-2h-1v2h-1zM3 25h3v3h-3zM27 25h1v1h-1zM12 26v1h1v-1zM26 26h1v1h-1zM28 26h2v1h-1v2h-1zM20 27h1v1h-1zM23 27h3v2h-1v1h-2v-1h1v-1h-1zM10 28h1v1h-1zM19 28h1v1h-1zM21 28h1v1h-1zM9 29h1v1h-1zM18 29h1v1h-1zM20 29h1v1h-1zM27 29h1v1h-1z"/></svg>